<svg width="37" height="30" viewBox="0 0 37 30" fill="none" xmlns="http://www.w3.org/2000/svg">
<path d="M23.9037 0H10.6125L9.51197 6.15425L21.506 6.1711C27.4132 6.1711 29.1595 8.3161 29.109 11.8705C29.0809 13.6955 28.2948 16.7782 27.9523 17.7777C27.0426 20.4393 25.1727 23.4827 18.165 23.4715L6.50784 23.4659L5.40165 29.6258H18.6591C23.3366 29.6258 25.3244 29.0811 27.43 28.1097C32.1019 25.9534 34.8814 21.3434 35.9932 15.3295C37.6497 6.37325 35.5833 0 23.9037 0Z" fill="#4C7EFF"/>
<path d="M4.87957 11.7242C1.39815 11.7242 0.8984 13.9927 0.572719 15.3629C0.140349 17.1597 -3.05176e-05 17.8841 -3.05176e-05 17.8841H13.6056C17.087 17.8841 17.5868 15.6155 17.9124 14.2454C18.3448 12.4486 18.4852 11.7242 18.4852 11.7242H4.87957Z" fill="#4C7EFF"/>
</svg>
